<?xml version="1.0" standalone="no"?>
<!DOCTYPE svg PUBLIC "-//W3C//DTD SVG 20010904//EN"
 "http://www.w3.org/TR/2001/REC-SVG-20010904/DTD/svg10.dtd">
<svg version="1.0" xmlns="http://www.w3.org/2000/svg"
 width="864.000000pt" height="864.000000pt" viewBox="0 0 864.000000 864.000000"
 preserveAspectRatio="xMidYMid meet">
<metadata>
Created by potrace 1.14, written by Peter Selinger 2001-2017
</metadata>
<g transform="translate(0.000000,864.000000) scale(0.100000,-0.100000)"
fill="#000000" stroke="none">
<path d="M2849 7062 c-188 -94 -382 -220 -509 -328 -108 -92 -145 -127 -220
-203 -129 -131 -277 -312 -342 -420 -12 -20 -27 -39 -32 -43 -6 -4 -7 -8 -3
-8 5 0 -3 -14 -17 -31 -14 -17 -26 -34 -26 -39 0 -5 -17 -37 -37 -72 -21 -35
-38 -65 -39 -68 0 -3 -14 -34 -31 -70 -50 -108 -96 -214 -99 -230 0 -3 -4 -13
-7 -22 -4 -10 -10 -26 -14 -35 -3 -10 -7 -20 -8 -23 -6 -19 -29 -97 -31 -105
-1 -5 -10 -37 -19 -70 -20 -70 -18 -65 -33 -135 -13 -63 -20 -98 -28 -155 -3
-22 -8 -51 -10 -65 -25 -166 -25 -531 1 -700 3 -19 8 -51 10 -70 7 -69 32
-185 66 -312 19 -70 79 -251 93 -283 8 -16 26 -59 41 -95 28 -67 112 -233 145
-285 11 -16 27 -43 36 -60 42 -76 158 -234 264 -359 39 -46 219 -226 280 -280
30 -26 100 -82 155 -123 55 -40 107 -79 116 -86 8 -7 27 -19 42 -27 14 -8 70
-40 124 -71 89 -52 279 -150 285 -148 3 0 25 -8 108 -41 71 -28 151 -54 267
-86 101 -27 101 -27 218 -49 141 -25 148 -26 306 -39 120 -10 421 -5 484 8 11
2 52 7 90 11 76 9 87 11 95 14 3 2 19 5 35 7 85 13 324 77 390 104 11 4 43 16
70 25 54 19 84 31 157 64 26 11 52 21 58 21 5 0 10 4 10 10 0 5 3 9 8 8 25 -5
361 193 448 265 10 9 57 46 104 83 114 91 308 286 406 409 78 98 174 231 174
241 0 3 13 24 28 47 39 56 113 194 157 290 40 89 42 87 -60 42 -51 -23 -114
-45 -128 -45 -4 0 -20 -6 -36 -14 -15 -8 -39 -18 -52 -20 -13 -3 -64 -17 -114
-31 -87 -24 -104 -28 -170 -40 -16 -3 -38 -8 -48 -11 -10 -3 -30 -7 -45 -9
-15 -2 -45 -7 -67 -10 -102 -14 -185 -19 -385 -19 -238 0 -345 9 -542 49 -16
3 -38 7 -50 9 -46 8 -154 37 -190 51 -21 8 -38 12 -38 9 0 -4 -6 -2 -12 3 -7
6 -26 14 -43 18 -44 12 -45 12 -50 15 -3 1 -8 3 -12 5 -32 8 -261 110 -313
138 -137 74 -171 94 -254 149 -82 55 -203 143 -216 158 -3 3 -32 28 -65 55
-73 61 -226 214 -292 292 -26 32 -58 69 -70 83 -13 14 -23 28 -23 32 0 3 -6
13 -13 20 -7 7 -43 56 -79 108 -57 83 -81 122 -132 215 -6 11 -13 22 -16 25
-8 8 -117 242 -125 270 -4 14 -11 30 -15 35 -6 8 -58 157 -66 190 -2 6 -10 34
-18 63 -8 28 -11 52 -8 52 4 0 2 4 -4 8 -7 4 -14 23 -18 42 -3 19 -15 82 -26
140 -11 58 -22 123 -24 145 -17 175 -20 226 -20 345 1 333 47 612 151 905 14
39 32 90 40 115 9 25 21 48 27 52 6 4 8 8 3 8 -4 0 -1 14 8 30 9 17 12 30 7
30 -5 0 -78 -35 -163 -78z m-263 -2104 c12 -39 11 -141 -2 -200 -15 -64 -45
-138 -56 -138 -5 0 -8 -7 -8 -15 0 -27 -131 -148 -193 -178 -33 -16 -67 -30
-78 -32 -10 -2 -24 -7 -31 -11 -21 -13 -175 -13 -226 0 -72 19 -162 63 -194
93 -37 35 -38 84 -3 112 31 24 52 21 114 -17 91 -56 182 -72 274 -46 28 8 57
16 62 17 47 13 140 98 169 155 26 50 43 136 40 197 -4 65 6 88 47 104 31 11
75 -10 85 -41z m435 -1063 c31 -19 36 -51 35 -228 -1 -150 1 -178 14 -181 8
-2 87 -3 175 -2 88 1 173 -2 188 -7 54 -18 60 -105 9 -126 -16 -6 -93 -11
-182 -10 -85 0 -166 0 -180 0 l-25 -1 1 -186 c0 -170 -1 -188 -19 -211 -13
-16 -26 -23 -38 -20 -11 3 -19 1 -19 -4 0 -6 -8 -5 -20 1 -40 22 -47 55 -46
243 l1 177 -120 1 c-226 1 -263 3 -279 19 -26 26 -29 72 -6 99 20 23 23 23
212 25 l193 1 0 180 c1 99 4 189 8 201 13 36 61 51 98 29z m919 -785 c24 -24
23 -16 24 -170 l1 -125 142 -5 c154 -5 167 -10 177 -63 3 -19 -2 -35 -18 -53
-21 -26 -24 -26 -161 -28 l-139 -1 -1 -137 c0 -155 -10 -178 -70 -178 -60 0
-69 23 -70 179 l0 138 -140 0 c-137 1 -140 1 -162 27 -26 30 -23 72 8 98 16
14 42 17 150 16 71 0 133 3 136 6 4 3 7 68 8 143 1 129 2 137 24 154 30 25 66
24 91 -1z"/>
<path d="M4263 7073 c-3 -10 -21 -51 -39 -91 -19 -40 -34 -75 -34 -77 0 -2
-20 -46 -44 -97 -24 -51 -54 -118 -67 -148 -13 -30 -30 -63 -39 -72 -12 -14
-117 -69 -140 -74 -3 0 -36 -16 -75 -34 -38 -18 -74 -34 -80 -36 -5 -1 -59
-25 -119 -52 l-108 -50 43 -20 c77 -34 139 -61 142 -61 1 1 25 -11 52 -24 48
-24 165 -79 175 -82 3 -1 29 -12 58 -25 58 -26 52 -17 142 -220 21 -47 56
-123 77 -170 22 -47 46 -100 54 -117 16 -39 25 -41 35 -10 6 20 82 192 138
312 13 28 37 80 54 116 l30 65 108 49 c60 26 147 66 194 88 47 22 91 40 98 40
6 0 12 4 12 9 0 4 4 8 10 8 15 0 90 34 90 41 0 4 -39 24 -87 45 -49 21 -90 41
-93 44 -3 3 -11 6 -18 8 -7 1 -41 15 -75 31 -34 16 -100 47 -147 69 -47 21
-90 45 -96 53 -6 8 -34 68 -64 134 -29 66 -66 146 -81 178 -15 31 -25 57 -21
57 4 0 2 4 -4 8 -5 4 -21 33 -33 65 -24 59 -37 70 -48 40z"/>
<path d="M6108 7042 c-13 -9 -25 -17 -28 -19 -3 -3 -7 -68 -10 -146 l-5 -142
-128 -1 c-141 -1 -172 -10 -182 -55 -8 -35 9 -67 41 -79 14 -6 81 -10 150 -10
l124 0 0 -124 c0 -69 4 -136 10 -150 12 -32 44 -49 80 -41 45 10 55 45 54 188
l0 127 108 1 c192 2 184 0 203 44 12 29 6 57 -15 79 -17 17 -34 19 -157 19
l-139 0 0 138 c-1 117 -4 142 -18 158 -23 26 -61 31 -88 13z"/>
<path d="M5715 5782 c-11 -7 -18 -23 -61 -117 -14 -33 -36 -80 -47 -105 -11
-25 -21 -47 -22 -50 -4 -12 -39 -89 -77 -169 -23 -47 -42 -88 -42 -91 -1 -3
-7 -19 -14 -36 -14 -33 -20 -36 -257 -141 -55 -25 -142 -65 -193 -89 -52 -24
-97 -44 -102 -44 -11 0 -70 -34 -70 -40 0 -3 21 -14 48 -24 26 -11 81 -36 122
-55 41 -19 77 -35 80 -36 3 -1 37 -16 75 -33 39 -18 116 -54 173 -80 111 -50
111 -51 161 -164 21 -49 34 -77 94 -208 18 -41 56 -124 82 -184 l49 -108 17
38 c10 22 34 75 54 119 62 135 81 178 112 245 17 36 41 90 54 120 25 60 56
111 67 108 4 -1 32 10 62 24 129 60 360 164 370 165 3 1 28 13 55 27 28 13 64
30 80 36 28 11 25 13 -115 76 -80 35 -154 69 -165 74 -180 84 -238 110 -247
110 -5 0 -23 9 -39 21 -27 19 -52 64 -114 204 -7 17 -27 62 -45 100 -18 39
-38 84 -45 100 -7 17 -30 66 -50 110 -21 44 -38 86 -38 93 0 6 -1 12 -1 12 -1
0 -6 -4 -11 -8z"/>
</g>
</svg>
