<?xml version="1.0" encoding="UTF-8" standalone="no"?>
<!DOCTYPE svg PUBLIC "-//W3C//DTD SVG 1.1//EN" "http://www.w3.org/Graphics/SVG/1.1/DTD/svg11.dtd">
<svg version="1.1" xmlns="http://www.w3.org/2000/svg" xmlns:xlink="http://www.w3.org/1999/xlink" viewBox="0 0 110.0 105.0" width="53.87" height="43.61">
<path d="m77.543 18.305h3.7461v3.7461c0 0.58984 0.47656 1.0664 1.0664 1.0664 0.58594 0 1.0664-0.47656 1.0664-1.0664v-3.7461h3.7461c0.58594 0 1.0664-0.47656 1.0664-1.0664 0-0.58984-0.47656-1.0664-1.0664-1.0664h-3.7461v-3.7461c0-0.58984-0.47656-1.0664-1.0664-1.0664-0.58594 0-1.0664 0.47656-1.0664 1.0664v3.7461h-3.7461c-0.58594 0-1.0664 0.47656-1.0664 1.0664 0 0.58984 0.47656 1.0664 1.0664 1.0664z"/>
<path d="m50.996 25.973 3.3906 7.5078 3.3906-7.5078c0.10547-0.23438 0.29688-0.42578 0.53125-0.53125l7.5078-3.3906-7.5078-3.3906c-0.23438-0.10547-0.42578-0.29688-0.53125-0.53125l-3.3906-7.5078-3.3906 7.5078c-0.10547 0.23828-0.29688 0.42578-0.53125 0.53125l-7.5078 3.3906 7.5078 3.3906c0.23828 0.10547 0.42578 0.29297 0.53125 0.53125z"/>
<path d="m71.391 47.691c0.23438 0.10547 0.42578 0.29688 0.53125 0.53125l4.0156 8.8945 4.0156-8.8945c0.10547-0.23828 0.29688-0.42578 0.53125-0.53125l8.8945-4.0156-8.8945-4.0156c-0.23438-0.10547-0.42578-0.29688-0.53125-0.53125l-4.0156-8.8945-4.0156 8.8945c-0.10547 0.23828-0.29688 0.42578-0.53125 0.53125l-8.8945 4.0156z"/>
<path d="m72.902 68.211c-22.672 0-41.117-18.445-41.117-41.117 0-5.9062 1.2773-11.762 3.7148-17.098-15.355 6.4531-25.5 21.547-25.5 38.379 0 22.953 18.672 41.625 41.625 41.625 16.828 0 31.926-10.145 38.375-25.504-5.3359 2.4375-11.191 3.7148-17.098 3.7148zm-47.457-17.574c-1.1719 0.68359-2.4688 1.0234-3.7578 1.0234-1.6367 0-3.2617-0.54297-4.6172-1.6172-0.46094-0.36328-0.53906-1.0352-0.17578-1.4961s1.0352-0.53906 1.4961-0.17578c1.7344 1.3672 4.0781 1.5352 5.9805 0.42578s2.9102-3.2344 2.5703-5.418c-0.089844-0.58203 0.30859-1.125 0.88672-1.2148 0.58203-0.085937 1.125 0.30859 1.2148 0.89063 0.48047 3.0508-0.93359 6.0273-3.5977 7.582zm15.891 16.492h-5.2969v5.2969c0 0.58984-0.47656 1.0664-1.0664 1.0664-0.58594 0-1.0664-0.47656-1.0664-1.0664v-5.2969h-5.2969c-0.58594 0-1.0664-0.47656-1.0664-1.0664s0.47656-1.0664 1.0664-1.0664h5.2969v-5.2969c0-0.58984 0.47656-1.0664 1.0664-1.0664 0.58594 0 1.0664 0.47656 1.0664 1.0664v5.2969h5.2969c0.58594 0 1.0664 0.47656 1.0664 1.0664-0.003906 0.58984-0.48047 1.0664-1.0664 1.0664zm12.094 10.121h-3.7461v3.7461c0 0.58984-0.47656 1.0664-1.0664 1.0664-0.58594 0-1.0664-0.47656-1.0664-1.0664l0.003907-3.7461h-3.7461c-0.58594 0-1.0664-0.47656-1.0664-1.0664s0.47656-1.0664 1.0664-1.0664h3.7461v-3.7422c0-0.58984 0.47656-1.0664 1.0664-1.0664 0.58594 0 1.0664 0.47656 1.0664 1.0664v3.7461h3.7461c0.58594 0 1.0664 0.47656 1.0664 1.0664-0.007812 0.58594-0.48438 1.0625-1.0703 1.0625z"/>
</svg>